<?xml version="1.0" encoding="UTF-8" standalone="no"?>
<!-- Created with Inkscape (http://www.inkscape.org/) -->

<svg
   xmlns:dc="http://purl.org/dc/elements/1.1/"
   xmlns:cc="http://creativecommons.org/ns#"
   xmlns:rdf="http://www.w3.org/1999/02/22-rdf-syntax-ns#"
   xmlns:svg="http://www.w3.org/2000/svg"
   xmlns="http://www.w3.org/2000/svg"
   xmlns:sodipodi="http://sodipodi.sourceforge.net/DTD/sodipodi-0.dtd"
   xmlns:inkscape="http://www.inkscape.org/namespaces/inkscape"
   version="1.1"
   width="114.9856"
   height="117.85053"
   id="svg2"
   inkscape:version="0.48.4 r9939"
   sodipodi:docname="bh280.svg">
  <sodipodi:namedview
     pagecolor="#ffffff"
     bordercolor="#666666"
     borderopacity="1"
     objecttolerance="10"
     gridtolerance="10"
     guidetolerance="10"
     inkscape:pageopacity="0"
     inkscape:pageshadow="2"
     inkscape:window-width="1855"
     inkscape:window-height="1056"
     id="namedview72"
     showgrid="false"
     fit-margin-top="0"
     fit-margin-left="0"
     fit-margin-right="0"
     fit-margin-bottom="0"
     inkscape:zoom="2.6365827"
     inkscape:cx="36.283599"
     inkscape:cy="69.24729"
     inkscape:window-x="65"
     inkscape:window-y="24"
     inkscape:window-maximized="1"
     inkscape:current-layer="svg2" />
  <defs
     id="defs4">
    <clipPath
       id="clipPath3107">
      <path
         d="M 0,1 11,1 11,14 0,14 0,1 z"
         id="path3109"
         inkscape:connector-curvature="0" />
    </clipPath>
    <clipPath
       id="clipPath3097">
      <path
         d="m 0,13.793 11,0 0,-13 -11,0 0,13 z"
         id="path3099"
         inkscape:connector-curvature="0" />
    </clipPath>
  </defs>
  <metadata
     id="metadata7">
    <rdf:RDF>
      <cc:Work
         rdf:about="">
        <dc:format>image/svg+xml</dc:format>
        <dc:type
           rdf:resource="http://purl.org/dc/dcmitype/StillImage" />
        <dc:title />
      </cc:Work>
    </rdf:RDF>
  </metadata>
  <g
     transform="matrix(0.15601801,0,0,0.1645804,0.22395305,-0.31998161)"
     id="layer1">
    <g
       transform="matrix(68.144387,0,0,-73.288571,-3.3528011,1023.7462)"
       id="g3089">
      <g
         id="g3091" />
      <g
         transform="matrix(0,0.91392913,-0.84589154,0,11.725004,4.1725215)"
         id="g3093">
        <g
           clip-path="url(#clipPath3097)"
           id="g3095">
          <g
             id="g3101">
            <g
               id="g3103">
              <g
                 clip-path="url(#clipPath3107)"
                 id="g3105">
                <g
                   id="g3111">
                  <path
                     d="m 7.109,2.172 0.321,0.113 2.781,0 L 10.418,2.148 10.477,1.855 10.391,1.633 10.242,1.539 7.434,1.25 7.109,1.363 6.969,1.543 6.93,1.883"
                     id="path3113"
                     style="fill:#bdbdbd;fill-opacity:1;fill-rule:nonzero;stroke:none"
                     inkscape:connector-curvature="0" />
                  <g
                     transform="translate(0,14)"
                     id="g3115">
                    <path
                       d="m 7.109,-11.828 0.321,0.113 2.781,0 0.207,-0.137 0.059,-0.293 -0.086,-0.222 -0.149,-0.094 -2.808,-0.289 -0.325,0.113 -0.14,0.18 -0.039,0.34 0.179,0.289 z"
                       id="path3117"
                       style="fill:none;stroke:#636363;stroke-width:0.5;stroke-linecap:butt;stroke-linejoin:round;stroke-miterlimit:10;stroke-opacity:1;stroke-dasharray:none"
                       inkscape:connector-curvature="0" />
                  </g>
                  <path
                     d="M 4.543,5.199 4.781,5.328 5.055,5.355 5.312,5.273 6.277,4.336 7.465,2.797 7.906,1.969 7.914,1.586 7.766,1.371 7.531,1.262 7.27,1.277 7.051,1.418 4.48,4.219 4.34,4.453 4.301,4.723 4.375,4.984"
                     id="path3119"
                     style="fill:#bdbdbd;fill-opacity:1;fill-rule:nonzero;stroke:none"
                     inkscape:connector-curvature="0" />
                  <g
                     transform="translate(0,14)"
                     id="g3121">
                    <path
                       d="m 4.543,-8.801 0.238,0.129 0.274,0.027 0.257,-0.082 0.965,-0.937 1.188,-1.539 0.441,-0.828 0.008,-0.383 -0.148,-0.215 -0.235,-0.109 -0.261,0.015 -0.219,0.141 -2.571,2.801 -0.14,0.234 -0.039,0.27 0.074,0.261 0.168,0.215 z"
                       id="path3123"
                       style="fill:none;stroke:#636363;stroke-width:0.5;stroke-linecap:butt;stroke-linejoin:round;stroke-miterlimit:10;stroke-opacity:1;stroke-dasharray:none"
                       inkscape:connector-curvature="0" />
                  </g>
                  <path
                     d="m 10.391,13.164 0.078,-0.141 -0.02,-0.32 -0.301,-0.199 -2.832,0.019 -0.289,0.184 -0.109,0.32 0.113,0.321 0.403,0.195 2.75,-0.277"
                     id="path3125"
                     style="fill:#bdbdbd;fill-opacity:1;fill-rule:nonzero;stroke:none"
                     inkscape:connector-curvature="0" />
                  <g
                     transform="translate(0,14)"
                     id="g3127">
                    <path
                       d="m 10.391,-0.836 0.078,-0.141 -0.02,-0.32 -0.301,-0.199 -2.832,0.019 -0.289,0.184 -0.109,0.32 0.113,0.321 0.403,0.195 2.75,-0.277 0.207,-0.102 z"
                       id="path3129"
                       style="fill:none;stroke:#636363;stroke-width:0.5;stroke-linecap:butt;stroke-linejoin:round;stroke-miterlimit:10;stroke-opacity:1;stroke-dasharray:none"
                       inkscape:connector-curvature="0" />
                  </g>
                  <path
                     d="M 7.766,13.422 7.918,13.211 7.906,12.824 7.465,11.996 6.277,10.457 5.312,9.523 5.055,9.441 4.781,9.465 4.543,9.598 4.375,9.809 4.301,10.074 4.34,10.34 l 0.14,0.234 2.571,2.801 0.219,0.141 0.261,0.019"
                     id="path3131"
                     style="fill:#bdbdbd;fill-opacity:1;fill-rule:nonzero;stroke:none"
                     inkscape:connector-curvature="0" />
                  <g
                     transform="translate(0,14)"
                     id="g3133">
                    <path
                       d="M 7.766,-0.578 7.918,-0.789 7.906,-1.176 7.465,-2.004 6.277,-3.543 5.312,-4.477 5.055,-4.559 4.781,-4.535 4.543,-4.402 4.375,-4.191 4.301,-3.926 4.34,-3.66 l 0.14,0.234 2.571,2.801 0.219,0.141 0.261,0.019 0.235,-0.113 z"
                       id="path3135"
                       style="fill:none;stroke:#636363;stroke-width:0.5;stroke-linecap:butt;stroke-linejoin:round;stroke-miterlimit:10;stroke-opacity:1;stroke-dasharray:none"
                       inkscape:connector-curvature="0" />
                  </g>
                  <path
                     d="M 4.98,10.93 5.41,10.809 5.633,10.605 5.766,10.336 5.793,10.035 4.484,6.73 3.203,6.742 l -0.015,3.434 0.441,0.75"
                     id="path3137"
                     style="fill:#bdbdbd;fill-opacity:1;fill-rule:nonzero;stroke:none"
                     inkscape:connector-curvature="0" />
                  <g
                     transform="translate(0,14)"
                     id="g3139">
                    <path
                       d="M 4.98,-3.07 5.41,-3.191 5.633,-3.395 5.766,-3.664 5.793,-3.965 4.484,-7.27 3.203,-7.258 3.188,-3.824 3.629,-3.074 4.98,-3.07 z"
                       id="path3141"
                       style="fill:none;stroke:#636363;stroke-width:0.5;stroke-linecap:butt;stroke-linejoin:round;stroke-miterlimit:10;stroke-opacity:1;stroke-dasharray:none"
                       inkscape:connector-curvature="0" />
                  </g>
                  <path
                     d="m 10.391,13.164 0.078,-0.141 -0.02,-0.32 -0.301,-0.199 -2.832,0.019 -0.289,0.184 -0.109,0.32 0.113,0.321 0.403,0.195 2.75,-0.277"
                     id="path3143"
                     style="fill:#bdbdbd;fill-opacity:1;fill-rule:nonzero;stroke:none"
                     inkscape:connector-curvature="0" />
                  <g
                     transform="translate(0,14)"
                     id="g3145">
                    <path
                       d="m 10.391,-0.836 0.078,-0.141 -0.02,-0.32 -0.301,-0.199 -2.832,0.019 -0.289,0.184 -0.109,0.32 0.113,0.321 0.403,0.195 2.75,-0.277 0.207,-0.102 z"
                       id="path3147"
                       style="fill:none;stroke:#636363;stroke-width:0.5;stroke-linecap:butt;stroke-linejoin:round;stroke-miterlimit:10;stroke-opacity:1;stroke-dasharray:none"
                       inkscape:connector-curvature="0" />
                  </g>
                  <path
                     d="M 7.766,13.422 7.918,13.211 7.906,12.824 7.465,11.996 6.277,10.457 5.312,9.523 5.055,9.441 4.781,9.465 4.543,9.598 4.375,9.809 4.301,10.074 4.34,10.34 l 0.14,0.234 2.571,2.801 0.219,0.141 0.261,0.019"
                     id="path3149"
                     style="fill:#bdbdbd;fill-opacity:1;fill-rule:nonzero;stroke:none"
                     inkscape:connector-curvature="0" />
                  <g
                     transform="translate(0,14)"
                     id="g3151">
                    <path
                       d="M 7.766,-0.578 7.918,-0.789 7.906,-1.176 7.465,-2.004 6.277,-3.543 5.312,-4.477 5.055,-4.559 4.781,-4.535 4.543,-4.402 4.375,-4.191 4.301,-3.926 4.34,-3.66 l 0.14,0.234 2.571,2.801 0.219,0.141 0.261,0.019 0.235,-0.113 z"
                       id="path3153"
                       style="fill:none;stroke:#636363;stroke-width:0.5;stroke-linecap:butt;stroke-linejoin:round;stroke-miterlimit:10;stroke-opacity:1;stroke-dasharray:none"
                       inkscape:connector-curvature="0" />
                  </g>
                  <path
                     d="M 4.98,10.93 5.41,10.809 5.633,10.605 5.766,10.336 5.793,10.035 4.484,6.73 3.203,6.742 l -0.015,3.434 0.441,0.75"
                     id="path3155"
                     style="fill:#bdbdbd;fill-opacity:1;fill-rule:nonzero;stroke:none"
                     inkscape:connector-curvature="0" />
                  <g
                     transform="translate(0,14)"
                     id="g3157">
                    <path
                       d="M 4.98,-3.07 5.41,-3.191 5.633,-3.395 5.766,-3.664 5.793,-3.965 4.484,-7.27 3.203,-7.258 3.188,-3.824 3.629,-3.074 4.98,-3.07 z"
                       id="path3159"
                       style="fill:none;stroke:#636363;stroke-width:0.5;stroke-linecap:butt;stroke-linejoin:round;stroke-miterlimit:10;stroke-opacity:1;stroke-dasharray:none"
                       inkscape:connector-curvature="0" />
                  </g>
                  <path
                     d="M 5.035,6.715 5.793,4.762 5.766,4.461 5.633,4.191 5.277,3.918 3.59,3.887 3.188,4.621 3.156,5.039 0.25,4.977 0.25,9.816 2.969,9.805 4.656,9.301 5.035,8.648"
                     id="path3161"
                     style="fill:#bdbdbd;fill-opacity:1;fill-rule:nonzero;stroke:none"
                     inkscape:connector-curvature="0" />
                  <g
                     transform="translate(0,14)"
                     id="g3163">
                    <path
                       d="M 5.035,-7.285 5.793,-9.238 5.766,-9.539 5.633,-9.809 5.277,-10.082 3.59,-10.113 3.188,-9.379 3.156,-8.961 0.25,-9.023 l 0,4.839 2.719,-0.011 1.687,-0.504 0.379,-0.653 0,-1.933 z"
                       id="path3165"
                       style="fill:none;stroke:#636363;stroke-width:0.5;stroke-linecap:butt;stroke-linejoin:round;stroke-miterlimit:10;stroke-opacity:1;stroke-dasharray:none"
                       inkscape:connector-curvature="0" />
                  </g>
                  <path
                     d="m 7.109,2.172 0.321,0.113 2.781,0 L 10.418,2.148 10.477,1.855 10.391,1.633 10.242,1.539 7.434,1.25 7.109,1.363 6.969,1.543 6.93,1.883"
                     id="path3167"
                     style="fill:#bdbdbd;fill-opacity:1;fill-rule:nonzero;stroke:none"
                     inkscape:connector-curvature="0" />
                  <g
                     transform="translate(0,14)"
                     id="g3169">
                    <path
                       d="m 7.109,-11.828 0.321,0.113 2.781,0 0.207,-0.137 0.059,-0.293 -0.086,-0.222 -0.149,-0.094 -2.808,-0.289 -0.325,0.113 -0.14,0.18 -0.039,0.34 0.179,0.289 z"
                       id="path3171"
                       style="fill:none;stroke:#636363;stroke-width:0.5;stroke-linecap:butt;stroke-linejoin:round;stroke-miterlimit:10;stroke-opacity:1;stroke-dasharray:none"
                       inkscape:connector-curvature="0" />
                  </g>
                  <path
                     d="M 4.543,5.199 4.781,5.328 5.055,5.355 5.312,5.273 6.277,4.336 7.465,2.797 7.906,1.969 7.914,1.586 7.766,1.371 7.531,1.262 7.27,1.277 7.051,1.418 4.48,4.219 4.34,4.453 4.301,4.723 4.375,4.984"
                     id="path3173"
                     style="fill:#bdbdbd;fill-opacity:1;fill-rule:nonzero;stroke:none"
                     inkscape:connector-curvature="0" />
                  <g
                     transform="translate(0,14)"
                     id="g3175">
                    <path
                       d="m 4.543,-8.801 0.238,0.129 0.274,0.027 0.257,-0.082 0.965,-0.937 1.188,-1.539 0.441,-0.828 0.008,-0.383 -0.148,-0.215 -0.235,-0.109 -0.261,0.015 -0.219,0.141 -2.571,2.801 -0.14,0.234 -0.039,0.27 0.074,0.261 0.168,0.215 z"
                       id="path3177"
                       style="fill:none;stroke:#636363;stroke-width:0.5;stroke-linecap:butt;stroke-linejoin:round;stroke-miterlimit:10;stroke-opacity:1;stroke-dasharray:none"
                       inkscape:connector-curvature="0" />
                  </g>
                  <path
                     d="m 10.391,13.164 0.078,-0.141 -0.02,-0.32 -0.301,-0.199 -2.832,0.019 -0.289,0.184 -0.109,0.32 0.113,0.321 0.403,0.195 2.75,-0.277"
                     id="path3179"
                     style="fill:#bdbdbd;fill-opacity:1;fill-rule:nonzero;stroke:none"
                     inkscape:connector-curvature="0" />
                  <g
                     transform="translate(0,14)"
                     id="g3181">
                    <path
                       d="m 10.391,-0.836 0.078,-0.141 -0.02,-0.32 -0.301,-0.199 -2.832,0.019 -0.289,0.184 -0.109,0.32 0.113,0.321 0.403,0.195 2.75,-0.277 0.207,-0.102 z"
                       id="path3183"
                       style="fill:none;stroke:#636363;stroke-width:0.5;stroke-linecap:butt;stroke-linejoin:round;stroke-miterlimit:10;stroke-opacity:1;stroke-dasharray:none"
                       inkscape:connector-curvature="0" />
                  </g>
                  <path
                     d="M 7.766,13.422 7.918,13.211 7.906,12.824 7.465,11.996 6.277,10.457 5.312,9.523 5.055,9.441 4.781,9.465 4.543,9.598 4.375,9.809 4.301,10.074 4.34,10.34 l 0.14,0.234 2.571,2.801 0.219,0.141 0.261,0.019"
                     id="path3185"
                     style="fill:#bdbdbd;fill-opacity:1;fill-rule:nonzero;stroke:none"
                     inkscape:connector-curvature="0" />
                  <g
                     transform="translate(0,14)"
                     id="g3187">
                    <path
                       d="M 7.766,-0.578 7.918,-0.789 7.906,-1.176 7.465,-2.004 6.277,-3.543 5.312,-4.477 5.055,-4.559 4.781,-4.535 4.543,-4.402 4.375,-4.191 4.301,-3.926 4.34,-3.66 l 0.14,0.234 2.571,2.801 0.219,0.141 0.261,0.019 0.235,-0.113 z"
                       id="path3189"
                       style="fill:none;stroke:#636363;stroke-width:0.5;stroke-linecap:butt;stroke-linejoin:round;stroke-miterlimit:10;stroke-opacity:1;stroke-dasharray:none"
                       inkscape:connector-curvature="0" />
                  </g>
                  <path
                     d="M 4.98,10.93 5.41,10.809 5.633,10.605 5.766,10.336 5.793,10.035 4.484,6.73 3.203,6.742 l -0.015,3.434 0.441,0.75"
                     id="path3191"
                     style="fill:#bdbdbd;fill-opacity:1;fill-rule:nonzero;stroke:none"
                     inkscape:connector-curvature="0" />
                  <g
                     transform="translate(0,14)"
                     id="g3193">
                    <path
                       d="M 4.98,-3.07 5.41,-3.191 5.633,-3.395 5.766,-3.664 5.793,-3.965 4.484,-7.27 3.203,-7.258 3.188,-3.824 3.629,-3.074 4.98,-3.07 z"
                       id="path3195"
                       style="fill:none;stroke:#636363;stroke-width:0.5;stroke-linecap:butt;stroke-linejoin:round;stroke-miterlimit:10;stroke-opacity:1;stroke-dasharray:none"
                       inkscape:connector-curvature="0" />
                  </g>
                  <path
                     d="m 10.391,13.164 0.078,-0.141 -0.02,-0.32 -0.301,-0.199 -2.832,0.019 -0.289,0.184 -0.109,0.32 0.113,0.321 0.403,0.195 2.75,-0.277"
                     id="path3197"
                     style="fill:#bdbdbd;fill-opacity:1;fill-rule:nonzero;stroke:none"
                     inkscape:connector-curvature="0" />
                  <g
                     transform="translate(0,14)"
                     id="g3199">
                    <path
                       d="m 10.391,-0.836 0.078,-0.141 -0.02,-0.32 -0.301,-0.199 -2.832,0.019 -0.289,0.184 -0.109,0.32 0.113,0.321 0.403,0.195 2.75,-0.277 0.207,-0.102 z"
                       id="path3201"
                       style="fill:none;stroke:#636363;stroke-width:0.5;stroke-linecap:butt;stroke-linejoin:round;stroke-miterlimit:10;stroke-opacity:1;stroke-dasharray:none"
                       inkscape:connector-curvature="0" />
                  </g>
                  <path
                     d="M 7.766,13.422 7.918,13.211 7.906,12.824 7.465,11.996 6.277,10.457 5.312,9.523 5.055,9.441 4.781,9.465 4.543,9.598 4.375,9.809 4.301,10.074 4.34,10.34 l 0.14,0.234 2.571,2.801 0.219,0.141 0.261,0.019"
                     id="path3203"
                     style="fill:#bdbdbd;fill-opacity:1;fill-rule:nonzero;stroke:none"
                     inkscape:connector-curvature="0" />
                  <g
                     transform="translate(0,14)"
                     id="g3205">
                    <path
                       d="M 7.766,-0.578 7.918,-0.789 7.906,-1.176 7.465,-2.004 6.277,-3.543 5.312,-4.477 5.055,-4.559 4.781,-4.535 4.543,-4.402 4.375,-4.191 4.301,-3.926 4.34,-3.66 l 0.14,0.234 2.571,2.801 0.219,0.141 0.261,0.019 0.235,-0.113 z"
                       id="path3207"
                       style="fill:none;stroke:#636363;stroke-width:0.5;stroke-linecap:butt;stroke-linejoin:round;stroke-miterlimit:10;stroke-opacity:1;stroke-dasharray:none"
                       inkscape:connector-curvature="0" />
                  </g>
                  <path
                     d="M 4.98,10.93 5.41,10.809 5.633,10.605 5.766,10.336 5.793,10.035 4.484,6.73 3.203,6.742 l -0.015,3.434 0.441,0.75"
                     id="path3209"
                     style="fill:#bdbdbd;fill-opacity:1;fill-rule:nonzero;stroke:none"
                     inkscape:connector-curvature="0" />
                  <g
                     transform="translate(0,14)"
                     id="g3211">
                    <path
                       d="M 4.98,-3.07 5.41,-3.191 5.633,-3.395 5.766,-3.664 5.793,-3.965 4.484,-7.27 3.203,-7.258 3.188,-3.824 3.629,-3.074 4.98,-3.07 z"
                       id="path3213"
                       style="fill:none;stroke:#636363;stroke-width:0.5;stroke-linecap:butt;stroke-linejoin:round;stroke-miterlimit:10;stroke-opacity:1;stroke-dasharray:none"
                       inkscape:connector-curvature="0" />
                  </g>
                  <path
                     d="M 5.035,6.715 5.793,4.762 5.766,4.461 5.633,4.191 5.277,3.918 3.59,3.887 3.188,4.621 3.156,5.039 0.25,4.977 0.25,9.816 2.969,9.805 4.656,9.301 5.035,8.648"
                     id="path3215"
                     style="fill:#bdbdbd;fill-opacity:1;fill-rule:nonzero;stroke:none"
                     inkscape:connector-curvature="0" />
                  <g
                     transform="translate(0,14)"
                     id="g3217">
                    <path
                       d="M 5.035,-7.285 5.793,-9.238 5.766,-9.539 5.633,-9.809 5.277,-10.082 3.59,-10.113 3.188,-9.379 3.156,-8.961 0.25,-9.023 l 0,4.839 2.719,-0.011 1.687,-0.504 0.379,-0.653 0,-1.933 z"
                       id="path3219"
                       style="fill:none;stroke:#636363;stroke-width:0.5;stroke-linecap:butt;stroke-linejoin:round;stroke-miterlimit:10;stroke-opacity:1;stroke-dasharray:none"
                       inkscape:connector-curvature="0" />
                  </g>
                </g>
              </g>
            </g>
          </g>
        </g>
      </g>
    </g>
  </g>
</svg>
